<?xml version="1.0" ?><!DOCTYPE svg  PUBLIC '-//W3C//DTD SVG 1.1//EN'  'http://www.w3.org/Graphics/SVG/1.1/DTD/svg11.dtd'><svg height="0.990276in" style="shape-rendering:geometricPrecision; text-rendering:geometricPrecision; image-rendering:optimizeQuality; fill-rule:evenodd; clip-rule:evenodd" version="1.1" viewBox="0 0 413 412" width="0.991323in" xml:space="preserve" xmlns="http://www.w3.org/2000/svg" xmlns:xlink="http://www.w3.org/1999/xlink"><defs><style type="text/css">
   <![CDATA[
    .str0 {stroke:black;stroke-width:2.89202}
    .fil0 {fill:black}
   ]]>
  </style></defs><g id="Layer_x0020_1"><g id="_298676536"><path class="fil0" d="M244 257l-75 0c-8,0 -13,-6 -13,-13 0,-7 5,-12 13,-12l75 0c7,0 13,5 13,12 0,7 -6,13 -13,13zm-75 -102l37 0c7,0 13,6 13,13 0,7 -6,13 -13,13l-37 0c-8,0 -13,-6 -13,-13 0,-7 5,-13 13,-13zm143 33l-2 -3 -3 -3c-4,-3 -24,0 -29,-4 -4,-4 -5,-10 -6,-18 -2,-17 -3,-18 -6,-23 -9,-20 -34,-34 -51,-37l-47 0c-37,0 -67,31 -67,67l0 33 0 45c0,37 30,67 67,67l77 0c37,0 67,-30 67,-67l0 -44 0 -10 0 -3z"/><path class="fil0 str0" d="M411 207c-1,113 -92,204 -205,204 -113,0 -205,-92 -205,-205 0,-113 92,-205 205,-205l205 0 0 206 0 0zm-205 -184c101,0 183,82 183,183l0 1c0,101 -82,182 -183,182 -101,0 -183,-82 -183,-183 0,-101 82,-183 183,-183z"/></g></g></svg>